<svg width="135" height="135" viewBox="0 0 135 135" fill="none" xmlns="http://www.w3.org/2000/svg">
<rect width="135" height="135" fill="white"/>
<path d="M30.33 80.612C28.902 80.612 27.644 80.3627 26.556 79.864C25.468 79.3653 24.6293 78.674 24.04 77.79C23.4507 76.8833 23.156 75.8407 23.156 74.662C23.156 73.6647 23.36 72.758 23.768 71.942C24.1987 71.126 24.7653 70.48 25.468 70.004C26.1933 69.528 26.9867 69.29 27.848 69.29C28.6413 69.29 29.31 69.494 29.854 69.902C30.398 70.2873 30.738 70.8313 30.874 71.534C29.6953 71.534 28.7547 71.8513 28.052 72.486C27.3493 73.098 26.998 73.9367 26.998 75.002C26.998 75.9767 27.2927 76.7587 27.882 77.348C28.4713 77.9373 29.2533 78.232 30.228 78.232C31.4293 78.232 32.4153 77.8353 33.186 77.042C33.9793 76.226 34.376 75.206 34.376 73.982C34.376 72.9167 34.0813 71.908 33.492 70.956C32.9027 70.004 32.0187 68.848 30.84 67.488C29.616 66.0827 28.6867 64.8813 28.052 63.884C27.44 62.864 27.134 61.7533 27.134 60.552C27.134 59.3733 27.4627 58.3193 28.12 57.39C28.7773 56.438 29.684 55.69 30.84 55.146C31.996 54.602 33.2993 54.33 34.75 54.33C36.586 54.33 38.048 54.7607 39.136 55.622C40.2467 56.4833 40.802 57.6393 40.802 59.09C40.802 60.042 40.564 60.8127 40.088 61.402C39.612 61.9913 38.9887 62.286 38.218 62.286C37.3567 62.286 36.6653 61.9347 36.144 61.232C36.5747 60.9147 36.9147 60.4953 37.164 59.974C37.4133 59.4527 37.538 58.9087 37.538 58.342C37.538 57.6167 37.3227 57.0387 36.892 56.608C36.4613 56.1773 35.872 55.962 35.124 55.962C34.2173 55.962 33.4693 56.2907 32.88 56.948C32.3133 57.5827 32.03 58.3987 32.03 59.396C32.03 60.3027 32.2907 61.1527 32.812 61.946C33.3333 62.7167 34.1493 63.714 35.26 64.938C36.1667 65.9127 36.892 66.7513 37.436 67.454C38.0027 68.1567 38.4787 68.9727 38.864 69.902C39.272 70.8087 39.476 71.7947 39.476 72.86C39.476 74.3107 39.068 75.6253 38.252 76.804C37.4587 77.9827 36.3593 78.912 34.954 79.592C33.5713 80.272 32.03 80.612 30.33 80.612ZM46.2526 80.204C44.5753 80.204 43.272 79.7733 42.3426 78.912C41.4133 78.028 40.9486 76.6567 40.9486 74.798C40.9486 73.234 41.2546 71.5113 41.8666 69.63C42.5013 67.7487 43.4986 66.128 44.8586 64.768C46.2413 63.3853 47.9866 62.694 50.0946 62.694C51.4546 62.694 52.418 62.9887 52.9846 63.578C53.574 64.1673 53.8686 64.9153 53.8686 65.822C53.8686 66.6153 53.6986 67.2273 53.3586 67.658C53.0186 68.0887 52.588 68.304 52.0666 68.304C51.6813 68.304 51.2846 68.168 50.8766 67.896C51.1486 67.148 51.2846 66.4793 51.2846 65.89C51.2846 65.4593 51.2053 65.1193 51.0466 64.87C50.888 64.6207 50.65 64.496 50.3326 64.496C49.6526 64.496 48.9726 65.0513 48.2926 66.162C47.6126 67.2727 47.0573 68.6213 46.6266 70.208C46.196 71.7947 45.9806 73.2227 45.9806 74.492C45.9806 75.6027 46.1733 76.362 46.5586 76.77C46.944 77.1553 47.5673 77.348 48.4286 77.348C49.6526 77.348 50.6953 77.0647 51.5566 76.498C52.4406 75.9313 53.404 75.07 54.4466 73.914H55.6026C53.0866 78.1073 49.97 80.204 46.2526 80.204ZM66.7135 80.204C65.3308 80.204 64.3108 79.8413 63.6535 79.116C63.0188 78.368 62.7015 77.45 62.7015 76.362C62.7015 75.886 62.7581 75.3533 62.8715 74.764C62.9848 74.152 63.0981 73.5627 63.2115 72.996C63.3475 72.4293 63.4381 72.0667 63.4835 71.908C63.6648 71.1147 63.8348 70.3327 63.9935 69.562C64.1521 68.7913 64.2315 68.168 64.2315 67.692C64.2315 66.536 63.8235 65.958 63.0075 65.958C62.4181 65.958 61.8968 66.2527 61.4435 66.842C60.9901 67.4087 60.6275 68.1567 60.3555 69.086L58.0435 80H53.1475L58.0775 56.88L63.1095 56.2L61.2735 64.768C62.4068 63.4987 63.7328 62.864 65.2515 62.864C66.4075 62.864 67.3255 63.1813 68.0055 63.816C68.6855 64.4507 69.0255 65.414 69.0255 66.706C69.0255 67.3633 68.9461 68.1 68.7875 68.916C68.6288 69.7093 68.4021 70.684 68.1075 71.84C67.9261 72.5427 67.7561 73.234 67.5975 73.914C67.4615 74.5713 67.3935 75.0927 67.3935 75.478C67.3935 75.9313 67.4955 76.2827 67.6995 76.532C67.9035 76.7813 68.2548 76.906 68.7535 76.906C69.4335 76.906 69.9775 76.668 70.3855 76.192C70.7935 75.6933 71.2015 74.934 71.6095 73.914H73.0375C72.1988 76.4073 71.2241 78.0847 70.1135 78.946C69.0255 79.7847 67.8921 80.204 66.7135 80.204ZM75.6855 80.204C74.3935 80.204 73.3168 79.762 72.4555 78.878C71.5941 77.994 71.1635 76.6113 71.1635 74.73C71.1635 73.0527 71.4921 71.296 72.1495 69.46C72.8295 67.6013 73.8268 66.0373 75.1415 64.768C76.4788 63.476 78.0655 62.83 79.9015 62.83C80.8308 62.83 81.5221 62.9887 81.9755 63.306C82.4288 63.6233 82.6555 64.0427 82.6555 64.564V64.802L83.0295 63H87.9255L85.4775 74.56C85.3868 74.9 85.3415 75.2627 85.3415 75.648C85.3415 76.6227 85.8061 77.11 86.7355 77.11C87.3701 77.11 87.9141 76.8153 88.3675 76.226C88.8435 75.6367 89.2175 74.866 89.4895 73.914H90.9175C90.0788 76.362 89.0361 78.028 87.7895 78.912C86.5655 79.7733 85.3301 80.204 84.0835 80.204C83.1315 80.204 82.3608 79.9433 81.7715 79.422C81.2048 78.878 80.8648 78.096 80.7515 77.076C80.0941 78.0053 79.3575 78.7647 78.5415 79.354C77.7481 79.9207 76.7961 80.204 75.6855 80.204ZM77.8955 76.906C78.4621 76.906 79.0175 76.6453 79.5615 76.124C80.1281 75.58 80.5135 74.8433 80.7175 73.914L82.3495 66.23C82.3495 65.9353 82.2361 65.652 82.0095 65.38C81.7828 65.0853 81.4315 64.938 80.9555 64.938C80.0488 64.938 79.2328 65.4707 78.5075 66.536C77.7821 67.5787 77.2155 68.848 76.8075 70.344C76.3995 71.8173 76.1955 73.1207 76.1955 74.254C76.1955 75.3873 76.3541 76.1127 76.6715 76.43C77.0115 76.7473 77.4195 76.906 77.8955 76.906ZM91.814 63H96.71L96.268 65.108C97.0386 64.428 97.73 63.9067 98.342 63.544C98.9766 63.1813 99.6566 63 100.382 63C101.107 63 101.674 63.2493 102.082 63.748C102.513 64.2467 102.728 64.8473 102.728 65.55C102.728 66.2073 102.513 66.7853 102.082 67.284C101.651 67.7827 101.051 68.032 100.28 68.032C99.7813 68.032 99.4413 67.9187 99.26 67.692C99.1013 67.4427 98.9766 67.0913 98.886 66.638C98.818 66.3433 98.75 66.128 98.682 65.992C98.614 65.856 98.4893 65.788 98.308 65.788C97.832 65.788 97.424 65.89 97.084 66.094C96.7666 66.2753 96.3473 66.604 95.826 67.08L93.106 80H88.21L91.814 63ZM105.481 80.204C104.325 80.204 103.464 79.8527 102.897 79.15C102.353 78.4473 102.081 77.518 102.081 76.362C102.081 75.7727 102.149 75.172 102.285 74.56L104.461 64.36H103.339L103.611 63H104.733L105.753 58.308L110.785 57.628C110.581 58.4893 110.468 58.9993 110.445 59.158C110.286 59.7927 110.014 61.0733 109.629 63H111.669L111.397 64.36H109.357L107.181 74.56C107.068 75.0587 107.011 75.4553 107.011 75.75C107.011 76.566 107.408 76.974 108.201 76.974C108.609 76.974 108.904 76.94 109.085 76.872C108.632 78.1867 108.099 79.0707 107.487 79.524C106.875 79.9773 106.206 80.204 105.481 80.204Z" fill="#FF4949"/>
</svg>
